# xmcd
#
# Track frame offsets:
#	150
#	18585
#	33929
#	54043
#	72167
#	85550
#	103754
#	125067
#	147329
#	168213
#	187050
#	209706
#
# Disc length: 3109 seconds
#
# Revision: 1
# Processed by: cddbd v1.5.2PL0 Copyright (c) Steve Scherf et al.
# Submitted via: audiograbber 1.83.01
#
DISCID=a60c230c
DTITLE=Dolores O'Riordan - Are You Listening?
DYEAR=2007
DGENRE=Pop
TTITLE0=Ordinary Morning
TTITLE1=When We Were Young
TTITLE2=In The Garden
TTITLE3=Human Spirit
TTITLE4=Loser
TTITLE5=Stay With Me
TTITLE6=Apple Of My Eye
TTITLE7=Black Widow
TTITLE8=October
TTITLE9=Accept Things
TTITLE10=Angel Fire
TTITLE11=Ecstasy
EXTD=
EXTT0=
EXTT1=
EXTT2=
EXTT3=
EXTT4=
EXTT5=
EXTT6=
EXTT7=
EXTT8=
EXTT9=
EXTT10=
EXTT11=
PLAYORDER=
